<svg xmlns="http://www.w3.org/2000/svg" width="640pt" height="640pt" viewBox="0 0 640 640" version="1.1">

<g id="#2967e5ff">
<path fill="#2967e5" opacity="1.00" d=" M 315.68 151.69 C 316.80 149.96 317.43 147.16 319.95 147.12 C 322.85 146.62 324.13 149.59 325.35 151.61 C 333.00 165.26 341.33 178.51 348.91 192.20 C 350.28 194.53 350.03 197.54 348.62 199.79 C 345.96 204.45 343.88 209.42 341.07 214.00 C 340.00 215.45 339.98 217.47 340.97 218.97 C 348.24 232.04 355.44 245.16 363.21 257.93 C 364.79 260.37 367.02 257.51 367.77 255.87 C 380.73 233.23 393.29 210.37 405.79 187.48 C 407.84 184.85 405.51 181.35 402.40 181.41 C 392.93 180.96 383.43 181.43 373.95 181.26 C 372.19 181.13 371.41 179.26 370.50 178.03 C 375.23 169.10 380.92 160.71 385.78 151.85 C 387.03 149.05 389.93 147.26 393.02 147.56 C 415.37 147.58 437.71 147.60 460.06 147.62 C 463.32 147.65 464.63 151.66 463.22 154.24 C 432.08 209.13 401.28 264.23 370.18 319.15 C 368.93 321.99 365.41 322.34 362.83 321.33 C 358.19 315.58 355.26 308.69 351.32 302.47 C 332.43 269.67 314.18 236.49 295.10 203.80 C 293.13 200.39 289.95 196.27 292.10 192.23 C 300.12 178.81 307.98 165.30 315.68 151.69 Z" />
<path fill="#2967e5" opacity="1.00" d=" M 177.79 148.79 C 181.79 148.01 185.89 148.22 189.93 147.88 C 206.29 147.78 222.65 147.84 239.01 147.80 C 243.62 147.88 248.37 147.34 252.80 148.88 C 255.15 150.40 256.23 153.07 257.62 155.37 C 261.20 161.70 265.42 167.65 268.91 174.03 C 270.05 175.91 269.79 178.13 269.37 180.17 C 268.02 180.90 266.62 181.61 265.04 181.48 C 256.67 181.59 248.31 181.31 239.95 181.37 C 237.98 181.29 236.14 181.97 234.42 182.83 C 234.01 185.26 235.71 187.15 236.79 189.14 C 249.52 212.03 262.69 234.67 275.61 257.46 C 276.63 259.98 279.63 258.35 280.46 256.55 C 284.99 248.95 288.80 240.93 293.25 233.29 C 294.23 230.91 297.60 231.06 298.63 233.31 C 303.27 241.37 307.57 249.63 312.49 257.53 C 314.29 260.11 314.38 263.82 312.73 266.50 C 302.75 283.91 293.02 301.46 282.64 318.63 C 281.05 322.59 274.70 323.05 272.52 319.47 C 251.89 284.85 232.72 249.37 212.53 214.50 C 201.15 194.26 189.52 174.17 178.09 153.95 C 176.98 152.40 177.25 150.49 177.79 148.79 Z" />
</g>
<g id="#000000ff">
<path fill="#000000" opacity="1.00" d=" M 479.04 355.85 C 483.19 355.83 487.34 355.88 491.50 355.80 C 491.67 377.70 491.54 399.60 491.56 421.50 C 487.38 421.49 483.21 421.50 479.03 421.49 C 479.04 399.61 479.02 377.73 479.04 355.85 Z" />
<path fill="#000000" opacity="1.00" d=" M 147.72 364.06 C 152.39 364.05 157.07 364.05 161.74 364.07 C 167.86 379.29 173.95 394.53 180.13 409.73 C 186.56 394.55 193.21 379.46 199.47 364.21 C 204.88 363.87 210.31 364.14 215.73 364.06 C 222.21 379.32 228.84 394.52 235.22 409.83 C 241.48 394.58 247.44 379.21 253.76 364.00 C 258.40 364.12 263.03 364.03 267.67 364.06 C 259.80 383.20 251.93 402.35 244.05 421.49 C 238.26 421.51 232.47 421.49 226.68 421.50 C 220.30 406.91 214.08 392.25 207.66 377.68 C 201.40 392.30 195.02 406.87 188.74 421.49 C 182.94 421.50 177.13 421.50 171.33 421.49 C 163.47 402.34 155.59 383.21 147.72 364.06 Z" />
<path fill="#000000" opacity="1.00" d=" M 268.86 377.68 C 283.50 372.99 299.53 370.75 314.59 374.65 C 322.63 376.62 329.04 383.58 329.88 391.89 C 330.79 401.71 330.09 411.63 330.31 421.49 C 326.13 421.50 321.95 421.50 317.77 421.49 C 317.77 419.49 317.76 417.49 317.75 415.50 C 305.80 420.72 292.54 423.56 279.51 421.79 C 274.54 421.05 269.11 419.07 266.57 414.40 C 263.81 409.10 264.20 401.86 268.51 397.48 C 271.59 394.34 275.83 392.68 280.04 391.67 C 292.58 388.95 305.67 390.38 317.89 393.97 C 317.80 388.59 312.95 385.00 308.04 384.15 C 296.56 381.82 284.59 383.51 273.44 386.77 C 271.92 383.73 270.37 380.71 268.86 377.68 M 279.41 402.40 C 276.96 404.22 276.74 408.11 278.65 410.39 C 280.27 412.06 282.74 412.38 284.94 412.62 C 296.16 413.55 307.37 410.86 317.77 406.82 C 317.76 405.37 317.75 403.93 317.75 402.50 C 308.22 399.49 298.08 398.60 288.16 399.54 C 285.12 399.97 281.88 400.46 279.41 402.40 Z" />
<path fill="#000000" opacity="1.00" d=" M 341.19 378.26 C 345.38 374.99 350.80 373.96 355.95 373.32 C 364.65 372.48 373.45 372.41 382.14 373.38 C 387.35 374.09 393.00 375.23 396.84 379.12 C 399.20 381.45 399.99 384.80 400.17 388.01 C 396.02 388.02 391.87 388.02 387.73 388.00 C 387.24 384.27 383.12 383.37 380.02 383.01 C 372.04 382.19 363.97 382.23 355.99 382.94 C 353.70 383.36 350.44 383.46 349.52 386.06 C 348.84 388.73 351.70 389.86 353.79 390.19 C 365.68 392.32 377.90 391.79 389.74 394.20 C 394.22 395.16 399.28 397.24 400.94 401.92 C 402.78 407.34 401.59 414.31 396.62 417.69 C 391.77 420.99 385.72 421.59 380.03 422.06 C 371.75 422.49 363.42 422.42 355.18 421.40 C 349.45 420.51 343.37 419.08 339.06 414.95 C 336.22 412.26 334.97 408.33 334.98 404.50 C 339.10 404.52 343.22 404.51 347.35 404.50 C 347.59 407.18 349.28 409.54 351.87 410.40 C 357.95 412.66 364.58 412.44 370.96 412.57 C 376.04 412.42 381.24 412.72 386.18 411.35 C 389.15 410.78 390.11 406.84 388.38 404.61 C 386.92 403.40 384.94 403.17 383.14 402.84 C 372.08 401.34 360.82 401.68 349.83 399.55 C 345.65 398.64 340.97 397.28 338.55 393.44 C 335.81 388.63 336.67 381.72 341.19 378.26 Z" />
<path fill="#000000" opacity="1.00" d=" M 411.43 382.48 C 417.24 375.69 426.53 373.45 435.08 372.85 C 444.91 372.34 455.74 372.91 463.92 379.04 C 470.58 384.05 472.98 392.74 472.92 400.73 C 455.00 400.73 437.08 400.71 419.16 400.75 C 420.05 405.28 423.47 409.01 427.84 410.43 C 434.01 412.50 440.71 412.31 447.08 411.49 C 451.96 410.83 456.86 408.69 459.72 404.52 C 463.86 404.51 468.01 404.50 472.15 404.53 C 470.25 411.49 464.56 416.84 457.89 419.26 C 449.01 422.59 439.21 422.90 429.90 421.60 C 421.47 420.33 412.55 416.27 408.75 408.18 C 405.08 400.02 405.63 389.52 411.43 382.48 M 419.71 392.11 C 433.00 392.15 446.30 392.14 459.59 392.11 C 458.15 387.77 454.30 384.65 449.93 383.61 C 443.46 381.99 436.58 382.12 430.07 383.41 C 425.40 384.30 421.09 387.42 419.71 392.11 Z" />
</g>
</svg>